<svg width="1503" height="261" viewBox="0 0 1503 261" fill="none" xmlns="http://www.w3.org/2000/svg">
<path d="M437.343 222.858V45.0875H437.575L532.494 179.692L518.105 176.443L612.793 45.0875H613.257V222.858H579.606V120.977L581.695 138.382L523.907 220.538H523.443L464.032 138.382L469.833 122.369V222.858H437.343ZM701.967 225.643C689.589 225.643 679.068 223.323 670.404 218.681C661.895 214.039 655.396 207.619 650.91 199.419C646.423 191.219 644.179 181.781 644.179 171.105C644.179 160.894 646.81 151.688 652.07 143.488C657.33 135.288 664.37 128.79 673.189 123.994C682.008 119.043 691.833 116.567 702.663 116.567C717.206 116.567 729.12 120.822 738.403 129.331C747.84 137.686 753.952 149.832 756.737 165.767L677.831 190.832L670.636 173.194L727.727 153.932L720.997 156.949C719.759 152.926 717.516 149.445 714.267 146.505C711.172 143.411 706.453 141.864 700.11 141.864C695.314 141.864 691.059 143.024 687.346 145.345C683.787 147.511 681.002 150.682 678.991 154.86C677.134 158.883 676.206 163.679 676.206 169.249C676.206 175.592 677.366 180.93 679.687 185.262C682.008 189.439 685.18 192.611 689.202 194.777C693.225 196.943 697.712 198.026 702.663 198.026C706.221 198.026 709.625 197.407 712.874 196.17C716.278 194.932 719.604 193.307 722.853 191.296L737.242 215.432C731.827 218.526 725.948 221.002 719.604 222.858C713.416 224.715 707.536 225.643 701.967 225.643ZM866.447 213.807C861.961 217.366 856.313 220.228 849.506 222.394C842.853 224.56 836.277 225.643 829.779 225.643C818.175 225.643 808.041 223.555 799.377 219.377C790.868 215.045 784.215 208.934 779.419 201.043C774.777 192.998 772.456 183.328 772.456 172.034C772.456 160.739 775.009 151.147 780.115 143.256C785.22 135.211 791.873 129.099 800.073 124.922C808.428 120.745 817.17 118.656 826.298 118.656C835.426 118.656 843.317 119.894 849.97 122.369C856.778 124.845 862.579 128.094 867.376 132.116L851.594 153.003C849.428 151.301 846.411 149.599 842.543 147.898C838.83 146.041 834.421 145.113 829.315 145.113C824.828 145.113 820.728 146.273 817.015 148.594C813.302 150.915 810.362 154.086 808.196 158.109C806.03 162.132 804.947 166.773 804.947 172.034C804.947 176.985 806.107 181.549 808.428 185.726C810.749 189.903 813.921 193.23 817.943 195.705C822.121 198.026 826.994 199.187 832.564 199.187C836.123 199.187 839.372 198.722 842.311 197.794C845.406 196.711 848.036 195.241 850.202 193.385L866.447 213.807ZM891.399 222.858V39.7497H923.194V141.864L922.962 137.918C926.52 131.575 931.549 126.469 938.047 122.601C944.545 118.579 952.513 116.567 961.951 116.567C971.543 116.567 979.511 119.429 985.855 125.154C992.353 130.724 995.679 137.996 995.834 146.969V222.858H963.343V159.037C963.188 154.55 961.951 150.992 959.63 148.362C957.464 145.577 953.751 144.184 948.49 144.184C943.539 144.184 939.207 145.809 935.494 149.058C931.781 152.307 928.918 156.716 926.907 162.286C924.896 167.856 923.89 174.277 923.89 181.549V222.858H891.399ZM1068.65 112.854L1067.72 121.441L1072.83 114.943L1128.52 52.0498H1172.15L1101.6 128.635L1172.39 222.858H1129.68L1077 149.986L1068.65 158.341V222.858H1034.53V52.0498H1068.65V112.854ZM1230.77 225.643C1221.33 225.643 1212.75 223.787 1205.01 220.073C1197.43 216.206 1191.39 210.326 1186.91 202.436C1182.42 194.545 1180.18 184.488 1180.18 172.266C1180.18 160.817 1182.5 150.915 1187.14 142.56C1191.78 134.205 1197.89 127.784 1205.47 123.297C1213.05 118.656 1221.1 116.335 1229.61 116.335C1239.67 116.335 1247.25 118.037 1252.35 121.441C1257.61 124.69 1261.95 128.326 1265.35 132.348L1263.96 136.294L1266.97 121.441H1297.14V222.858H1264.65V200.811L1267.21 207.773C1266.9 207.773 1265.97 208.702 1264.42 210.558C1262.87 212.26 1260.55 214.349 1257.46 216.824C1254.52 219.145 1250.81 221.157 1246.32 222.858C1241.99 224.715 1236.8 225.643 1230.77 225.643ZM1240.05 199.187C1243.92 199.187 1247.4 198.645 1250.5 197.562C1253.59 196.324 1256.3 194.622 1258.62 192.456C1260.94 190.136 1262.95 187.273 1264.65 183.869V159.037C1263.42 155.633 1261.56 152.771 1259.08 150.45C1256.61 147.975 1253.67 146.118 1250.26 144.881C1246.86 143.488 1243.07 142.792 1238.89 142.792C1234.25 142.792 1229.92 144.03 1225.9 146.505C1222.03 148.826 1218.93 152.075 1216.61 156.252C1214.29 160.43 1213.13 165.226 1213.13 170.641C1213.13 176.056 1214.37 180.93 1216.85 185.262C1219.32 189.594 1222.57 192.998 1226.59 195.473C1230.77 197.949 1235.26 199.187 1240.05 199.187ZM1359.86 121.441L1362.88 149.29L1362.19 145.113C1365.12 139.079 1369.15 133.973 1374.25 129.796C1379.36 125.463 1384.39 122.137 1389.34 119.816C1394.44 117.495 1398.31 116.335 1400.94 116.335L1399.32 148.826C1391.74 147.898 1385.24 149.135 1379.82 152.539C1374.41 155.943 1370.23 160.43 1367.29 166C1364.35 171.569 1362.88 177.294 1362.88 183.173V222.858H1330.62V121.441H1359.86ZM1435.33 76.8821H1467.82V120.977H1492.42V146.273H1467.82V222.858H1435.33V146.273H1419.54V120.977H1435.33V76.8821Z" fill="black"/>
<path fill-rule="evenodd" clip-rule="evenodd" d="M70.3909 64.3045C70.3909 49.8959 81.6549 38.2153 95.5498 38.2153H102.771L102.77 110.085C86.3656 110.085 73.0671 123.876 73.0671 140.887C73.0671 157.898 86.3656 171.688 102.77 171.688L102.771 243.558H95.5498C81.6549 243.558 70.3909 231.878 70.3909 217.469C70.3909 215.381 69.0022 212.595 65.6834 210.726C64.6621 210.151 63.6548 209.552 62.6624 208.932C59.3524 206.863 56.2452 206.996 54.4208 208.078C42.304 215.267 26.8635 210.977 19.8363 198.469L12.8616 186.054C5.82087 173.522 9.97594 157.441 22.1159 150.238C23.876 149.194 25.5309 146.538 25.4502 142.585C25.4387 142.02 25.4329 141.454 25.4329 140.887C25.4329 140.32 25.4387 139.754 25.4502 139.189C25.5308 135.236 23.8759 132.58 22.1158 131.536C9.97561 124.333 5.82052 108.252 12.8613 95.7192L19.8358 83.3048C26.863 70.7964 42.3036 66.5062 54.4205 73.6955C56.2449 74.778 59.3522 74.9108 62.6623 72.8416C63.6548 72.2211 64.662 71.623 65.6834 71.0478C69.0022 69.1787 70.3909 66.3927 70.3909 64.3045Z" fill="black"/>
<path d="M109.992 38.2153H102.771L102.77 110.085C105.855 110.085 108.83 110.573 111.627 111.478V38.2695C111.086 38.2336 110.541 38.2153 109.992 38.2153Z" fill="black"/>
<path d="M102.771 243.558H109.992C110.541 243.558 111.086 243.54 111.627 243.504V170.296C108.83 171.201 105.855 171.688 102.77 171.688L102.771 243.558Z" fill="black"/>
<path d="M292.717 255.725V219.08H313.22L333.288 219.517V255.288L313.22 255.725H292.717ZM291.845 92.5701C291.554 92.5701 279.484 110.311 255.637 145.792C231.789 180.982 219.574 198.577 218.992 198.577C218.12 198.577 205.905 180.982 182.348 145.792L147.012 93.0064L146.576 174.584V255.725H126.073L106.005 255.288V140.993C106.005 64.5052 106.296 25.9705 106.878 25.3888C107.169 24.8072 114.585 24.5163 129.126 24.5163C140.469 24.5163 146.721 24.6617 147.885 24.9526C149.339 25.5342 159.227 39.9302 177.549 68.1406C205.178 110.892 219.428 132.268 220.301 132.268L220.737 131.832L221.173 130.959C222.046 130.087 233.388 112.637 255.2 78.6104C277.303 44.2926 288.791 26.8429 289.663 26.2613C290.827 25.098 298.243 24.5163 311.912 24.5163C324.999 24.5163 331.833 25.098 332.415 26.2613C332.997 27.4246 333.288 49.0913 333.288 91.2614C332.997 114.528 332.851 136.194 332.851 156.261C332.851 157.425 326.162 158.006 312.784 158.006H292.717V125.288C292.717 103.476 292.426 92.5701 291.845 92.5701Z" fill="#A424F2"/>
</svg>
